<svg width="1440" height="320" fill="none" xmlns="http://www.w3.org/2000/svg"><g opacity=".36" stroke="#383D44" stroke-opacity=".5" stroke-linecap="round" stroke-linejoin="round"><path d="M720 469.107c397.64 0 720-138.592 720-309.554C1440-11.409 1117.64-150 720-150 322.355-150 0-11.409 0 159.553s322.355 309.554 720 309.554z"/><path d="M720.018-150C973.2-150 1178.77-11.285 1178.77 159.553S973.2 469.107 720.018 469.107c-253.183 0-458.729-138.716-458.729-309.554C261.289-11.285 466.835-150 720.018-150z"/><path d="M719.983 469.107c127.745 0 231.304-138.592 231.304-309.554C951.287-11.409 847.728-150 719.983-150S488.68-11.409 488.68 159.553s103.558 309.554 231.303 309.554zM719.977-150v619.107M1440 159.557H0"/></g></svg>