<svg width="35" height="44" fill="none" xmlns="http://www.w3.org/2000/svg"><path d="M31.25 40.625h-9.66a52.064 52.064 0 004.582-4.639c5.361-6.166 8.203-12.666 8.203-18.798a17.187 17.187 0 10-34.375 0C0 23.32 2.834 29.82 8.203 35.986a52.054 52.054 0 004.582 4.639h-9.66a1.563 1.563 0 100 3.125H31.25a1.563 1.563 0 000-3.125zM3.125 17.187a14.063 14.063 0 0128.125 0c0 11.178-10.834 20.508-14.063 23.047C13.96 37.695 3.126 28.365 3.126 17.187zm21.875 0a7.813 7.813 0 10-15.626 0 7.813 7.813 0 0015.626 0zm-12.5 0a4.687 4.687 0 119.374 0 4.687 4.687 0 01-9.374 0z" fill="#EF9033"/></svg>