<svg width="1350" height="89" fill="none" xmlns="http://www.w3.org/2000/svg"><path d="M56.617 25.449H12.01V4.29h117.246v21.16H84.474V66H56.617V25.449zM136.323 4.29h114.601v15.87H164.18v7.053h86.744V43.08H164.18v7.052h86.744V66H136.323V4.291zm159.526 0l22.744 16.31 22.744-16.31h39.317l-42.403 30.414L381.888 66h-39.317l-23.978-17.19L294.615 66h-39.318l43.637-31.295-42.402-30.414h39.317zm91.337 0h27.857v20.276h61.532V4.291h27.857V66h-27.857V45.724h-61.532V66h-27.857V4.291zm217.798-.881c4.231 0 8.228.852 11.989 2.556 3.761 1.705 7.023 4.026 9.785 6.965 2.821 2.88 5.025 6.259 6.612 10.138 1.645 3.82 2.468 7.845 2.468 12.077 0 4.231-.823 8.286-2.468 12.165-1.587 3.82-3.791 7.2-6.612 10.138-2.762 2.88-6.024 5.172-9.785 6.876-3.761 1.704-7.758 2.557-11.989 2.557h-64.353c-4.232 0-8.228-.853-11.99-2.557-3.761-1.704-7.052-3.996-9.873-6.876-2.762-2.938-4.966-6.318-6.612-10.138a31.84 31.84 0 01-2.38-12.165c0-4.232.794-8.258 2.38-12.078 1.646-3.878 3.85-7.258 6.612-10.137 2.821-2.939 6.112-5.26 9.873-6.965 3.762-1.704 7.758-2.556 11.99-2.556h64.353zm-5.73 22.92h-52.893c-2.469 0-4.555.852-6.259 2.557-1.705 1.704-2.557 3.79-2.557 6.259 0 2.468.852 4.554 2.557 6.259 1.704 1.704 3.79 2.556 6.259 2.556h52.893c2.468 0 4.554-.852 6.259-2.556 1.704-1.705 2.556-3.79 2.556-6.26 0-2.468-.852-4.554-2.556-6.258-1.705-1.705-3.791-2.557-6.259-2.557zM641.236 4.29h117.246V66h-27.857V25.449h-61.532V66h-27.857V4.291zM893.282 66h-31.384l-7.14-8.816h-54.304L793.314 66h-31.383l49.984-61.709h31.383L893.282 66zm-52.805-26.447l-12.871-15.867-12.87 15.867h25.741zm56.355-35.262h92.563c3.879 0 7.346.706 10.402 2.116 3.053 1.41 5.643 3.291 7.753 5.642a23.877 23.877 0 014.85 7.846 25.29 25.29 0 011.68 9.08c0 3.056-.56 6.083-1.68 9.08a24.89 24.89 0 01-4.85 7.934c-2.11 2.292-4.7 4.143-7.753 5.554-3.056 1.41-6.523 2.115-10.402 2.115h-64.706V66h-27.857V4.291zm27.857 21.158V32.5h57.653c2.586 0 3.879-1.175 3.879-3.526 0-2.35-1.293-3.526-3.879-3.526h-57.653zM1018.48 4.29h27.85v33.852l49.02-33.852h40.37l-44.69 30.855L1135.72 66h-40.37l-24.51-16.926L1046.33 66h-27.85V4.291zm164.36 61.62h-27.86V26.067l-13.48 13.488-10.93-10.932 24.41-24.419h27.86v61.709zm6.18-24.594c0-3.527.73-7.023 2.2-10.49 1.47-3.527 3.5-6.466 6.09-8.816l17.72-17.72h31.03l-11.46 11.46h46.1c4.41 0 8.23.794 11.46 2.38 3.23 1.588 5.88 3.615 7.94 6.084a24.256 24.256 0 014.67 8.286c1 2.997 1.5 5.936 1.5 8.816 0 2.88-.5 5.847-1.5 8.903-1 2.998-2.56 5.73-4.67 8.199-2.06 2.468-4.71 4.496-7.94 6.082-3.23 1.587-7.05 2.38-11.46 2.38h-65.23c-4.41 0-8.29-.793-11.64-2.38-3.29-1.586-6.05-3.614-8.29-6.082-2.17-2.469-3.82-5.201-4.93-8.199-1.06-3.056-1.59-6.024-1.59-8.903zm85.51 3.526c2.59 0 3.88-1.176 3.88-3.526 0-2.351-1.29-3.527-3.88-3.527h-53.77c-2.59 0-3.88 1.176-3.88 3.527 0 2.35 1.29 3.526 3.88 3.526h53.77zM1324.03 23V9.916h-5.04V7.843h12.28v2.073h-5.04V23h-2.2zm9.13 0V7.843h1.99l5.5 11.4 5.46-11.4h2.01v15.146h-2.08V12.621L1341.14 23h-1l-4.9-10.379V23h-2.08z" fill="#fff"/></svg>