<svg width="1436" height="73" fill="none" xmlns="http://www.w3.org/2000/svg"><mask id="a" maskUnits="userSpaceOnUse" x="-.281" y="-.669" width="1436" height="73" fill="#000"><path fill="#fff" d="M-.281-.669h1436v73h-1436z"/><path d="M50.417 25.423H1.019V1.993H130.86v23.43H81.266v44.908h-30.85V25.423zm88.268-23.43h126.912v17.573h-96.063v7.81h96.063v17.572h-96.063v7.81h96.063v17.573H138.685V1.993zm176.663 0l25.187 18.06 25.187-18.06h43.541l-46.958 33.68 48.325 34.658h-43.541l-26.554-19.037-26.554 19.037H270.44l48.325-34.657-46.958-33.68h43.541zm101.148 0h30.85v22.454h68.142V1.993h30.849v68.338h-30.849V47.877h-68.142V70.33h-30.85V1.993zm241.194-.976c4.686 0 9.112.944 13.277 2.831 4.166 1.887 7.778 4.458 10.837 7.712 3.124 3.19 5.564 6.932 7.322 11.227 1.822 4.23 2.733 8.689 2.733 13.375s-.911 9.177-2.733 13.472c-1.758 4.23-4.198 7.973-7.322 11.227-3.059 3.189-6.671 5.727-10.837 7.615-4.165 1.887-8.591 2.83-13.277 2.83h-71.266c-4.686 0-9.111-.943-13.277-2.83-4.165-1.888-7.81-4.426-10.934-7.615-3.059-3.254-5.499-6.996-7.321-11.227-1.758-4.295-2.636-8.786-2.636-13.472s.878-9.144 2.636-13.375c1.822-4.295 4.262-8.037 7.321-11.227 3.124-3.254 6.769-5.825 10.934-7.712 4.166-1.887 8.591-2.831 13.277-2.831h71.266zm-6.345 25.382H592.77c-2.734 0-5.044.944-6.931 2.831-1.888 1.888-2.832 4.198-2.832 6.932 0 2.733.944 5.044 2.832 6.931 1.887 1.888 4.197 2.831 6.931 2.831h58.575c2.733 0 5.044-.943 6.931-2.83 1.888-1.888 2.831-4.199 2.831-6.932 0-2.734-.943-5.044-2.831-6.931-1.887-1.888-4.198-2.832-6.931-2.832zM697.74 1.993h129.841v68.338h-30.85V25.423h-68.142v44.908H697.74V1.993zm279.218 68.338h-34.754l-7.908-9.763h-60.137l-7.907 9.763h-34.755L886.85 1.993h34.755l55.353 68.338zm-58.477-29.288l-14.253-17.572-14.254 17.572h28.507zm62.409-39.05h102.51c4.29 0 8.13.781 11.52 2.343 3.38 1.562 6.24 3.645 8.59 6.248a26.75 26.75 0 015.37 8.689 28.22 28.22 0 011.85 10.055c0 3.384-.62 6.736-1.85 10.055a27.895 27.895 0 01-5.37 8.787c-2.35 2.538-5.21 4.588-8.59 6.15-3.39 1.562-7.23 2.343-11.52 2.343h-71.66v13.668h-30.85V1.993zm30.85 23.43v7.81h63.85c2.86 0 4.29-1.301 4.29-3.905 0-2.603-1.43-3.905-4.29-3.905h-63.85zm103.86-23.43h30.85v37.488l54.28-37.488h44.71l-49.49 34.169 49.49 34.169h-44.71l-27.14-18.744-27.14 18.744h-30.85V1.993zm182.02 68.24h-30.85V26.106l-14.93 14.937-12.11-12.105 27.04-27.042h30.85v68.337zm6.85-27.237c0-3.905.81-7.778 2.44-11.618 1.62-3.905 3.87-7.159 6.73-9.762l19.62-19.623h34.37l-12.69 12.691h51.05c4.89 0 9.12.879 12.7 2.636 3.58 1.758 6.5 4.003 8.78 6.736a26.706 26.706 0 015.18 9.177c1.1 3.32 1.66 6.574 1.66 9.763s-.56 6.475-1.66 9.86c-1.11 3.319-2.83 6.345-5.18 9.079-2.28 2.733-5.2 4.979-8.78 6.736-3.58 1.757-7.81 2.636-12.7 2.636h-72.24c-4.88 0-9.17-.879-12.88-2.636-3.65-1.757-6.71-4.003-9.18-6.736-2.41-2.734-4.23-5.76-5.47-9.08-1.17-3.384-1.75-6.67-1.75-9.86zm94.69 3.905c2.86 0 4.3-1.302 4.3-3.905 0-2.604-1.44-3.905-4.3-3.905h-59.55c-2.86 0-4.3 1.301-4.3 3.905 0 2.603 1.44 3.905 4.3 3.905h59.55z"/></mask><path d="M50.417 25.423h1.017v-1.017h-1.017v1.017zm-49.398 0H.002v1.017h1.017v-1.017zm0-23.43V.976H.002v1.017h1.017zm129.841 0h1.017V.976h-1.017v1.017zm0 23.43v1.017h1.017v-1.017h-1.017zm-49.594 0v-1.017H80.25v1.017h1.017zm0 44.908v1.016h1.017v-1.016h-1.017zm-30.85 0H49.4v1.016h1.017v-1.016zm0-44.908v-1.017H1.02v2.034h49.398v-1.017zm-49.397 0h1.017V1.993H.002v23.43h1.017zm0-23.43V3.01H130.86V.976H1.019v1.017zm129.841 0h-1.017v23.43h2.034V1.993h-1.017zm0 23.43v-1.017H81.266v2.034h49.594v-1.017zm-49.594 0H80.25v44.908h2.034V25.423h-1.017zm0 44.908v-1.017h-30.85v2.033h30.85v-1.016zm-30.85 0h1.018V25.423H49.4v44.908h1.017zm88.269-68.338V.976h-1.017v1.017h1.017zm126.912 0h1.017V.976h-1.017v1.017zm0 17.573v1.017h1.017v-1.017h-1.017zm-96.063 0v-1.017h-1.017v1.017h1.017zm0 7.81h-1.017v1.017h1.017v-1.017zm96.063 0h1.017v-1.017h-1.017v1.017zm0 17.572v1.017h1.017v-1.017h-1.017zm-96.063 0v-1.017h-1.017v1.017h1.017zm0 7.81h-1.017v1.017h1.017v-1.017zm96.063 0h1.017v-1.017h-1.017v1.017zm0 17.573v1.016h1.017v-1.016h-1.017zm-126.912 0h-1.017v1.016h1.017v-1.016zm0-68.338V3.01h126.912V.976H138.685v1.017zm126.912 0h-1.017v17.573h2.034V1.993h-1.017zm0 17.573v-1.017h-96.063v2.034h96.063v-1.017zm-96.063 0h-1.017v7.81h2.034v-7.81h-1.017zm0 7.81v1.017h96.063v-2.034h-96.063v1.017zm96.063 0h-1.017v17.572h2.034V27.376h-1.017zm0 17.572v-1.017h-96.063v2.034h96.063v-1.017zm-96.063 0h-1.017v7.81h2.034v-7.81h-1.017zm0 7.81v1.017h96.063v-2.034h-96.063v1.017zm96.063 0h-1.017v17.573h2.034V52.758h-1.017zm0 17.573v-1.017H138.685v2.033h126.912v-1.016zm-126.912 0h1.017V1.993h-2.034v68.338h1.017zM315.348 1.993l.592-.826-.265-.19h-.327v1.016zm25.187 18.06l-.593.827.593.425.592-.425-.592-.826zm25.187-18.06V.976h-.327l-.265.19.592.827zm43.541 0l.592.827 2.57-1.844h-3.162v1.017zm-46.958 33.68l-.592-.826-1.153.827 1.153.826.592-.826zm48.325 34.658v1.016h3.162l-2.57-1.843-.592.827zm-43.541 0l-.593.826.266.19h.327v-1.016zm-26.554-19.037l.592-.827-.592-.425-.593.425.593.827zM313.981 70.33v1.016h.327l.265-.19-.592-.826zm-43.541 0l-.592-.827-2.571 1.843h3.163V70.33zm48.325-34.657l.592.826 1.152-.826-1.152-.827-.592.827zm-46.958-33.68V.975h-3.163l2.57 1.844.593-.827zm43.541 0l-.593.826 25.187 18.06.593-.826.592-.827-25.187-18.06-.592.826zm25.187 18.06l.592.826 25.188-18.06-.593-.827-.592-.826-25.188 18.06.593.827zm25.187-18.06V3.01h43.541V.976h-43.541v1.017zm43.541 0l-.593-.827-46.957 33.68.592.827.593.826 46.957-33.68-.592-.827zm-46.958 33.68l-.592.826 48.324 34.657.593-.826.592-.827-48.324-34.657-.593.827zM410.63 70.33v-1.017h-43.541v2.033h43.541V70.33zm-43.541 0l.592-.827-26.554-19.037-.592.827-.593.826 26.554 19.037.593-.826zm-26.554-19.037l-.593-.827-26.554 19.037.593.827.592.826 26.554-19.037-.592-.826zM313.981 70.33v-1.017H270.44v2.033h43.541V70.33zm-43.541 0l.593.826L319.357 36.5l-.592-.826-.593-.827-48.324 34.657.592.827zm48.325-34.657l.592-.827L272.4 1.167l-.593.826-.593.827 46.958 33.68.593-.826zm-46.958-33.68V3.01h43.541V.976h-43.541v1.017zm144.689 0V.975h-1.017v1.017h1.017zm30.85 0h1.017V.975h-1.017v1.017zm0 22.453h-1.017v1.017h1.017v-1.017zm68.142 0v1.017h1.017v-1.017h-1.017zm0-22.454V.976h-1.017v1.017h1.017zm30.849 0h1.017V.976h-1.017v1.017zm0 68.338v1.016h1.017V70.33h-1.017zm-30.849 0h-1.017v1.016h1.017V70.33zm0-22.454h1.017V46.86h-1.017v1.017zm-68.142 0V46.86h-1.017v1.017h1.017zm0 22.454v1.016h1.017V70.33h-1.017zm-30.85 0h-1.017v1.016h1.017V70.33zm0-68.338V3.01h30.85V.976h-30.85v1.017zm30.85 0h-1.017v22.454h2.034V1.993h-1.017zm0 22.454v1.017h68.142V23.43h-68.142v1.017zm68.142 0h1.017V1.993h-2.034v22.454h1.017zm0-22.454V3.01h30.849V.976h-30.849v1.017zm30.849 0h-1.017V70.33h2.034V1.993h-1.017zm0 68.338v-1.017h-30.849v2.033h30.849V70.33zm-30.849 0h1.017V47.877h-2.034V70.33h1.017zm0-22.454V46.86h-68.142v2.034h68.142v-1.017zm-68.142 0h-1.017V70.33h2.034V47.877h-1.017zm0 22.454v-1.017h-30.85v2.033h30.85V70.33zm-30.85 0h1.017V1.993h-2.034v68.338h1.017zM670.967 3.848l.42-.926-.42.926zm10.837 7.712l-.741.697.007.008.007.007.727-.712zm7.322 11.227l-.942.385.004.009.004.009.934-.403zm0 26.847l-.936-.397-.003.007.939.39zm-7.322 11.227l-.734-.704.734.704zm-10.837 7.615l.42.926-.42-.926zm-97.82 0l.42-.927-.42.927zm-10.934-7.615l-.741.697.008.007.007.008.726-.712zm-7.321-11.227l-.942.385.004.009.004.008.934-.402zm0-26.847l-.937-.397-.003.007.94.39zm7.321-11.227l-.733-.704h-.001l.734.704zm10.934-7.712l-.419-.926.419.926zm12.692 25.383l-.719-.72.719.72zm72.437 13.862l-.719-.719.719.72zm0-13.863l-.719.72.719-.72zm-.586-28.213v1.017c4.545 0 8.828.914 12.858 2.74l.419-.926.42-.926C667.087.973 662.518 0 657.69 0v1.017zm13.277 2.831l-.419.926c4.047 1.834 7.549 4.328 10.515 7.483l.741-.697.741-.696c-3.152-3.353-6.874-6.001-11.158-7.942l-.42.926zm10.837 7.712l-.727.712c3.029 3.091 5.398 6.722 7.107 10.9l.942-.385.941-.385c-1.805-4.412-4.317-8.267-7.537-11.553l-.726.711zm7.322 11.227l-.934.403c1.766 4.1 2.65 8.422 2.65 12.972h2.034c0-4.822-.938-9.417-2.816-13.777l-.934.402zm2.733 13.375h-1.017c0 4.55-.884 8.906-2.652 13.075l.936.397.936.397a35.165 35.165 0 002.814-13.87h-1.017zm-2.733 13.472l-.939-.39c-1.71 4.116-4.082 7.751-7.117 10.913l.734.704.733.704c3.213-3.346 5.723-7.196 7.528-11.54l-.939-.39zm-7.322 11.227l-.734-.704c-2.966 3.092-6.471 5.556-10.522 7.392l.419.927.42.926c4.279-1.939 7.999-4.551 11.151-7.837l-.734-.704zm-10.837 7.615l-.419-.927c-4.03 1.827-8.313 2.74-12.858 2.74v2.035c4.828 0 9.397-.973 13.697-2.922l-.42-.926zm-13.277 2.83V70.29h-71.266v2.034h71.266v-1.017zm-71.266 0V70.29c-4.545 0-8.827-.914-12.857-2.74l-.42.926-.419.926c4.3 1.949 8.869 2.922 13.696 2.922v-1.017zm-13.277-2.83l.42-.927c-4.053-1.836-7.593-4.303-10.627-7.4l-.727.712-.726.712c3.214 3.28 6.964 5.89 11.241 7.829l.419-.926zm-10.934-7.615l.741-.697c-2.975-3.165-5.351-6.807-7.128-10.932l-.934.402-.934.402c1.867 4.336 4.372 8.178 7.514 11.521l.741-.696zm-7.321-11.227l.941-.385c-1.707-4.172-2.56-8.532-2.56-13.087h-2.034c0 4.817.904 9.438 2.711 13.857l.942-.385zm-2.636-13.472h1.017c0-4.555.853-8.88 2.558-12.985l-.939-.39-.94-.39c-1.809 4.357-2.713 8.948-2.713 13.765h1.017zm2.636-13.375l.936.397c1.777-4.188 4.151-7.825 7.119-10.92l-.734-.704-.734-.704c-3.149 3.284-5.656 7.131-7.524 11.534l.937.397zm7.321-11.227l.734.705c3.033-3.16 6.571-5.656 10.62-7.49l-.42-.927-.419-.926c-4.282 1.94-8.033 4.585-11.248 7.934l.733.704zm10.934-7.712l.42.926c4.03-1.826 8.312-2.74 12.857-2.74V0c-4.827 0-9.396.973-13.696 2.922l.419.926zm13.277-2.831v1.017h71.266V0h-71.266v1.017zm64.921 25.382v-1.017H592.77v2.034h58.575V26.4zm-58.575 0v-1.017c-2.996 0-5.567 1.046-7.65 3.13l.719.718.719.72c1.691-1.692 3.741-2.534 6.212-2.534V26.4zm-6.931 2.831l-.719-.719c-2.084 2.084-3.129 4.655-3.129 7.65h2.033c0-2.47.842-4.52 2.534-6.211l-.719-.72zm-2.831 6.932h-1.017c0 2.996 1.045 5.567 3.129 7.65l.719-.719.719-.719c-1.692-1.692-2.534-3.741-2.534-6.212h-1.016zm2.831 6.931l-.719.72c2.083 2.082 4.654 3.128 7.65 3.128v-2.034c-2.471 0-4.521-.841-6.212-2.533l-.719.72zm6.931 2.831v1.017h58.575v-2.034H592.77v1.017zm58.575 0v1.017c2.996 0 5.567-1.046 7.65-3.129l-.719-.719-.719-.719c-1.691 1.692-3.741 2.533-6.212 2.533v1.017zm6.931-2.83l.719.718c2.083-2.083 3.129-4.654 3.129-7.65h-2.034c0 2.47-.841 4.52-2.533 6.212l.719.72zm2.831-6.932h1.017c0-2.996-1.046-5.567-3.129-7.65l-.719.718-.719.72c1.692 1.691 2.533 3.74 2.533 6.212h1.017zm-2.831-6.931l.719-.72c-2.083-2.083-4.654-3.128-7.65-3.128v2.033c2.471 0 4.521.842 6.212 2.534l.719-.72zM697.74 1.992V.976h-1.017v1.017h1.017zm129.841 0h1.017V.976h-1.017v1.017zm0 68.338v1.016h1.017V70.33h-1.017zm-30.85 0h-1.017v1.016h1.017V70.33zm0-44.908h1.017v-1.017h-1.017v1.017zm-68.142 0v-1.017h-1.017v1.017h1.017zm0 44.908v1.016h1.017V70.33h-1.017zm-30.849 0h-1.017v1.016h1.017V70.33zm0-68.338V3.01h129.841V.976H697.74v1.017zm129.841 0h-1.017V70.33h2.034V1.993h-1.017zm0 68.338v-1.017h-30.85v2.033h30.85V70.33zm-30.85 0h1.017V25.423h-2.034v44.908h1.017zm0-44.908v-1.017h-68.142v2.034h68.142v-1.017zm-68.142 0h-1.017V70.33h2.034V25.423h-1.017zm0 44.908v-1.017H697.74v2.033h30.849V70.33zm-30.849 0h1.016V1.993h-2.033v68.338h1.017zm279.218 0v1.016h2.132l-1.342-1.656-.79.64zm-34.754 0l-.791.64.306.376h.485V70.33zm-7.908-9.763l.79-.64-.305-.377h-.485v1.017zm-60.137 0V59.55h-.485l-.305.377.79.64zm-7.907 9.763v1.016h.484l.306-.376-.79-.64zm-34.755 0l-.79-.64-1.342 1.656h2.132V70.33zM886.85 1.993V.976h-.485l-.305.377.79.64zm34.755 0l.79-.64-.305-.377h-.485v1.017zm-3.124 39.05v1.017h2.134l-1.344-1.657-.79.64zm-14.253-17.572l.789-.641-.789-.974-.79.974.79.64zm-14.254 17.572l-.789-.64-1.345 1.657h2.134v-1.017zm86.984 29.288v-1.017h-34.754v2.033h34.754v-1.016zm-34.754 0l.79-.64-7.908-9.763-.79.64-.79.64 7.907 9.763.791-.64zm-7.908-9.763v-1.017h-60.137v2.034h60.137v-1.017zm-60.137 0l-.79-.64-7.908 9.763.791.64.79.64 7.907-9.763-.79-.64zm-7.907 9.763v-1.017h-34.755v2.033h34.755v-1.016zm-34.755 0l.79.64 55.354-68.338-.791-.64-.79-.64-55.353 68.338.79.64zM886.85 1.993V3.01h34.755V.976H886.85v1.017zm34.755 0l-.79.64 55.353 68.338.79-.64.79-.64-55.353-68.338-.79.64zm-3.124 39.05l.79-.64-14.254-17.573-.789.64-.79.641 14.253 17.573.79-.64zm-14.253-17.572l-.79-.641-14.253 17.573.789.64.79.64 14.253-17.572-.789-.64zm-14.254 17.572v1.017h28.507v-2.034h-28.507v1.017zm90.916-39.05V.976h-1.017v1.017h1.017zm114.03 2.343l.42-.923-.42.923zm8.59 6.248l-.76.68.01.01.75-.69zm5.37 8.689l-.95.361.95-.361zm0 20.11l.95.362v-.006l-.95-.355zm-5.37 8.787l.74.69.01-.01-.75-.68zm-8.59 6.15l-.43-.923.43.923zm-83.18 2.343v-1.017h-1.02v1.017h1.02zm0 13.668v1.016h1.02v-1.016h-1.02zm-30.85 0h-1.017v1.016h1.017v-1.016zm30.85-44.908v-1.017h-1.02v1.017h1.02zm0 7.81h-1.02v1.017h1.02v-1.017zm-30.85-31.24V3.01h102.51V.976H980.89v1.017zm102.51 0V3.01c4.17 0 7.86.758 11.09 2.25l.43-.924.42-.923c-3.54-1.633-7.52-2.437-11.94-2.437v1.017zm11.52 2.343l-.43.923c3.27 1.508 6.02 3.511 8.26 6.005l.76-.68.75-.68c-2.44-2.712-5.42-4.875-8.92-6.491l-.42.923zm8.59 6.248l-.75.69a25.862 25.862 0 015.17 8.36l.95-.361.95-.361c-1.29-3.375-3.14-6.383-5.58-9.018l-.74.69zm5.37 8.689l-.95.361c1.19 3.14 1.78 6.37 1.78 9.694h2.04c0-3.574-.64-7.048-1.92-10.416l-.95.36zm1.85 10.055h-1.02c0 3.258-.59 6.49-1.79 9.7l.96.355.95.355c1.28-3.427 1.92-6.899 1.92-10.41h-1.02zm-1.85 10.055l-.95-.36a26.918 26.918 0 01-5.18 8.466l.76.68.75.681a28.902 28.902 0 005.57-9.105l-.95-.361zm-5.37 8.787l-.75-.69c-2.25 2.433-5 4.406-8.27 5.917l.43.923.42.923c3.5-1.613 6.47-3.74 8.91-6.384l-.74-.69zm-8.59 6.15l-.43-.923c-3.23 1.491-6.92 2.25-11.09 2.25v2.033c4.42 0 8.4-.804 11.94-2.437l-.42-.923zm-11.52 2.343v-1.017h-71.66v2.034h71.66v-1.017zm-71.66 0h-1.02v13.668h2.04V56.663h-1.02zm0 13.668v-1.017h-30.85v2.033h30.85v-1.016zm-30.85 0h1.017V1.993h-2.034v68.338h1.017zm30.85-44.908h-1.02v7.81h2.04v-7.81h-1.02zm0 7.81v1.017h63.85v-2.034h-63.85v1.017zm63.85 0v1.017c1.56 0 2.93-.354 3.9-1.24 1-.904 1.41-2.197 1.41-3.682h-2.04c0 1.119-.3 1.778-.74 2.176-.45.415-1.24.712-2.53.712v1.017zm4.29-3.905h1.02c0-1.485-.41-2.777-1.41-3.681-.97-.887-2.34-1.24-3.9-1.24v2.033c1.29 0 2.08.297 2.53.712.44.398.74 1.057.74 2.176h1.02zm-4.29-3.905v-1.017h-63.85v2.034h63.85v-1.017zm40.01-23.43V.976h-1.02v1.017h1.02zm30.85 0h1.02V.976h-1.02v1.017zm0 37.488h-1.02v1.938l1.6-1.101-.58-.837zm54.28-37.488V.976h-.32l-.26.18.58.837zm44.71 0l.58.837 2.68-1.854h-3.26v1.017zm-49.49 34.169l-.58-.837-1.21.837 1.21.837.58-.837zm49.49 34.169v1.016h3.26l-2.68-1.853-.58.837zm-44.71 0l-.58.836.26.18h.32v-1.016zm-27.14-18.744l.58-.837-.58-.4-.58.4.58.837zm-27.14 18.744v1.016h.32l.26-.18-.58-.836zm-30.85 0h-1.02v1.016h1.02v-1.016zm0-68.338V3.01h30.85V.976h-30.85v1.017zm30.85 0h-1.02v37.488h2.04V1.993h-1.02zm0 37.488l.58.837 54.28-37.488-.58-.837-.58-.837-54.28 37.488.58.837zm54.28-37.488V3.01h44.71V.976h-44.71v1.017zm44.71 0l-.58-.837-49.49 34.169.58.837.57.837 49.5-34.169-.58-.837zm-49.49 34.169l-.58.837 49.49 34.168.58-.836.58-.837-49.5-34.169-.57.837zm49.49 34.169v-1.017h-44.71v2.033h44.71v-1.016zm-44.71 0l.58-.837-27.14-18.744-.58.837-.58.836 27.14 18.744.58-.836zm-27.14-18.744l-.58-.837-27.14 18.744.58.837.58.836 27.14-18.744-.58-.836zm-27.14 18.744v-1.017h-30.85v2.033h30.85v-1.016zm-30.85 0h1.02V1.993h-2.04v68.338h1.02zm182.02-.098v1.017h1.02v-1.017h-1.02zm-30.85 0h-1.01v1.017h1.01v-1.017zm0-44.127h1.02v-2.455l-1.74 1.736.72.72zm-14.93 14.937l-.72.72.72.718.72-.719-.72-.719zm-12.11-12.105l-.72-.72-.72.72.72.719.72-.72zm27.04-27.042V.879h-.42l-.3.297.72.72zm30.85 0h1.02V.879h-1.02v1.017zm0 68.337v-1.017h-30.85v2.034h30.85v-1.017zm-30.85 0h1.02V26.106h-2.03v44.127h1.01zm0-44.127l-.72-.719-14.93 14.937.72.72.72.718 14.93-14.936-.72-.72zm-14.93 14.937l.72-.719-12.11-12.105-.72.719-.72.719 12.11 12.105.72-.719zm-12.11-12.105l.72.719 27.04-27.042-.72-.72-.72-.719-27.04 27.043.72.719zm27.04-27.042v1.016h30.85V.88h-30.85v1.017zm30.85 0h-1.01v68.337h2.03V1.896h-1.02zm9.29 29.482l.93.397v-.006l-.93-.39zm6.73-9.762l.69.752.01-.016.02-.017-.72-.72zm19.62-19.623V.976h-.42l-.29.298.71.72zm34.37 0l.72.72 1.73-1.737h-2.45v1.017zm-12.69 12.691l-.72-.719-1.74 1.736h2.46v-1.017zm63.75 2.636l-.45.913.45-.913zm8.78 6.736l-.78.651.01.011.77-.662zm5.18 9.177l-.97.316v.006l.97-.322zm0 19.623l.96.321v-.005l-.96-.316zm-5.18 9.079l-.77-.662-.01.01.78.652zm-8.78 6.736l-.45-.913.45.913zm-97.82 0l-.45.916.01.003.44-.92zm-9.18-6.736l-.76.672.01.01.75-.682zm-5.47-9.08l-.96.333.01.012v.01l.95-.354zm-1.75-9.86h1.01c0-3.759.78-7.497 2.36-11.22l-.93-.397-.94-.396c-1.68 3.956-2.52 7.963-2.52 12.014h1.02zm2.44-11.617l.93.391c1.58-3.78 3.74-6.907 6.49-9.4l-.69-.753-.68-.753c-2.99 2.713-5.31 6.095-6.99 10.124l.94.391zm6.73-9.762l.72.719 19.62-19.623-.72-.719-.71-.719-19.63 19.623.72.719zm19.62-19.623V3.01h34.37V.976h-34.37v1.017zm34.37 0l-.72-.719-12.69 12.691.72.72.72.718 12.69-12.69-.72-.72zm-12.69 12.691v1.017h51.05v-2.033h-51.05v1.016zm51.05 0v1.017c4.77 0 8.84.857 12.25 2.532l.45-.913.44-.913c-3.74-1.839-8.13-2.74-13.14-2.74v1.017zm12.7 2.636l-.45.913c3.46 1.702 6.28 3.863 8.45 6.474l.78-.65.78-.652c-2.38-2.855-5.42-5.185-9.12-6.998l-.44.913zm8.78 6.736l-.77.662a25.612 25.612 0 014.98 8.831l.97-.316.96-.316a27.775 27.775 0 00-5.37-9.522l-.77.661zm5.18 9.177l-.97.322c1.08 3.225 1.61 6.37 1.61 9.44h2.03c0-3.308-.57-6.67-1.71-10.084l-.96.322zm1.66 9.763h-1.02c0 3.07-.53 6.25-1.61 9.544l.97.316.96.316c1.14-3.475 1.71-6.868 1.71-10.176h-1.01zm-1.66 9.86l-.97-.322c-1.06 3.19-2.72 6.102-4.98 8.739l.77.662.77.662c2.43-2.83 4.22-5.972 5.37-9.42l-.96-.321zm-5.18 9.079l-.78-.651c-2.17 2.611-4.99 4.772-8.45 6.474l.45.913.44.913c3.7-1.813 6.74-4.142 9.12-6.998l-.78-.651zm-8.78 6.736l-.45-.913c-3.41 1.675-7.48 2.532-12.25 2.532v2.034c5.01 0 9.4-.9 13.14-2.74l-.44-.913zm-12.7 2.636V70.29h-72.24v2.034h72.24v-1.017zm-72.24 0V70.29c-4.76 0-8.9-.856-12.45-2.538l-.43.919-.44.919c3.87 1.833 8.32 2.734 13.32 2.734v-1.017zm-12.88-2.636l.44-.916c-3.54-1.706-6.49-3.875-8.87-6.502l-.75.682-.75.682c2.56 2.84 5.73 5.161 9.48 6.97l.45-.916zm-9.18-6.736l.76-.672c-2.33-2.643-4.08-5.563-5.27-8.762l-.96.355-.95.355c1.28 3.439 3.17 6.572 5.66 9.396l.76-.672zm-5.47-9.08l.96-.332c-1.14-3.29-1.7-6.465-1.7-9.527h-2.03c0 3.315.61 6.714 1.81 10.192l.96-.332zm92.94-5.954v1.016c1.57 0 2.93-.353 3.91-1.24.99-.904 1.4-2.197 1.4-3.681h-2.03c0 1.118-.3 1.778-.74 2.176-.46.415-1.24.712-2.54.712V46.9zm4.3-3.905h1.01c0-1.485-.41-2.778-1.4-3.682-.98-.886-2.34-1.24-3.91-1.24v2.034c1.3 0 2.08.297 2.54.711.44.398.74 1.058.74 2.177h1.02zm-4.3-3.905v-1.017h-59.55v2.034h59.55V39.09zm-59.55 0v-1.017c-1.57 0-2.93.354-3.91 1.24-.99.904-1.4 2.197-1.4 3.682h2.03c0-1.119.3-1.779.74-2.177.46-.414 1.24-.712 2.54-.712v-1.016zm-4.3 3.905h-1.01c0 1.484.41 2.777 1.4 3.68.98.888 2.34 1.241 3.91 1.241v-2.033c-1.3 0-2.08-.297-2.54-.712-.44-.398-.74-1.058-.74-2.176h-1.02zm4.3 3.905v1.016h59.55v-2.033h-59.55V46.9z" fill="#5B5B5B" mask="url(#a)"/></svg>