<svg width="648" height="32" fill="none" xmlns="http://www.w3.org/2000/svg"><g clip-path="url(#clip0_2649_49)"><path d="M22.3 11.02H-.003V.44H58.62v10.58H36.23v20.275H22.3V11.019zM62.153.44h57.301v7.935H76.082V11.9h43.372v7.934H76.082v3.526h43.372v7.934h-57.3V.441zm79.764 0l11.372 8.155L164.661.441h19.658l-21.201 15.207 21.818 15.647h-19.658L153.289 22.7 141.3 31.295h-19.659l21.818-15.648L122.258.442h19.659zm45.668 0h13.929v10.14h30.766V.44h13.928v30.854H232.28V21.157h-30.766v10.138h-13.929V.441zM296.484 0c2.116 0 4.114.426 5.995 1.278a15.322 15.322 0 014.892 3.482c1.411 1.44 2.513 3.13 3.306 5.07a15.1 15.1 0 011.234 6.038c0 2.116-.411 4.143-1.234 6.083a16.238 16.238 0 01-3.306 5.069 15.665 15.665 0 01-4.892 3.438 14.36 14.36 0 01-5.995 1.278h-32.177a14.36 14.36 0 01-5.994-1.278 16.208 16.208 0 01-4.937-3.438 17.37 17.37 0 01-3.306-5.07 15.92 15.92 0 01-1.19-6.082c0-2.116.397-4.129 1.19-6.039.823-1.94 1.925-3.629 3.306-5.069a15.84 15.84 0 014.937-3.482A14.357 14.357 0 01264.307 0h32.177zm-2.865 11.46h-26.446c-1.235 0-2.278.426-3.13 1.278-.852.853-1.278 1.896-1.278 3.13s.426 2.277 1.278 3.13c.852.852 1.895 1.278 3.13 1.278h26.446c1.234 0 2.277-.426 3.13-1.279.852-.852 1.278-1.895 1.278-3.13 0-1.233-.426-2.276-1.278-3.129-.853-.852-1.896-1.278-3.13-1.278zM314.61.44h58.623v30.855h-13.928V11.019h-30.766v20.276H314.61V.441zm126.023 30.855h-15.692l-3.57-4.408h-27.152l-3.57 4.408h-15.691L399.949.441h15.692l24.992 30.854zm-26.402-13.223l-6.436-7.934-6.435 7.934h12.871zM442.408.44h46.282c1.939 0 3.673.352 5.201 1.058 1.528.705 2.821 1.645 3.879 2.82a12.036 12.036 0 012.424 3.923 12.69 12.69 0 01.837 4.54c0 1.528-.279 3.042-.837 4.54a12.55 12.55 0 01-2.424 3.967c-1.058 1.146-2.351 2.072-3.879 2.777-1.528.706-3.262 1.058-5.201 1.058h-32.353v6.171h-13.929V.441zm13.929 10.578v3.527h28.826c1.293 0 1.94-.588 1.94-1.763 0-1.176-.647-1.764-1.94-1.764h-28.826zM503.23.441h13.929v16.925L541.666.442h20.187l-22.347 15.427 22.347 15.427h-20.187l-12.254-8.463-12.253 8.463H503.23V.441zm82.183 30.81h-13.929V11.328l-6.743 6.744-5.466-5.466L571.484.396h13.929v30.855zm3.089-12.298c0-1.763.367-3.511 1.102-5.245.735-1.763 1.748-3.232 3.041-4.408l8.86-8.86h15.515l-5.73 5.73h23.053c2.204 0 4.114.398 5.73 1.191 1.616.793 2.938 1.807 3.967 3.041a12.082 12.082 0 012.336 4.144c.499 1.498.749 2.968.749 4.407 0 1.44-.25 2.924-.749 4.452a12.166 12.166 0 01-2.336 4.1c-1.029 1.233-2.351 2.247-3.967 3.04-1.616.794-3.526 1.19-5.73 1.19h-32.618c-2.204 0-4.143-.396-5.818-1.19-1.645-.793-3.027-1.807-4.143-3.04a13.054 13.054 0 01-2.468-4.1c-.529-1.528-.794-3.012-.794-4.452zm42.755 1.763c1.293 0 1.94-.587 1.94-1.763 0-1.175-.647-1.763-1.94-1.763H604.37c-1.293 0-1.939.588-1.939 1.763 0 1.176.646 1.763 1.939 1.763h26.887z" fill="#383D44"/></g><defs><clipPath id="clip0_2649_49"><path fill="#fff" d="M0 0h648v32H0z"/></clipPath></defs></svg>