<svg width="1295" height="64" fill="none" xmlns="http://www.w3.org/2000/svg"><path d="M44.609 22.038H.002V.881H117.25v21.157H72.466V62.59H44.609V22.038zM124.315.881h114.601V16.75h-86.744v7.053h86.744V39.67h-86.744v7.053h86.744V62.59H124.315V.88zm159.526 0l22.744 16.309L329.329.881h39.317l-42.402 30.414L369.88 62.59h-39.317L306.585 45.4l-23.978 17.19H243.29l43.636-31.295L244.524.88h39.317zm91.337 0h27.857v20.276h61.532V.881h27.857V62.59h-27.857V42.314h-61.532V62.59h-27.857V.88zM592.976 0c4.231 0 8.228.852 11.989 2.556 3.761 1.705 7.023 4.026 9.785 6.965 2.821 2.88 5.025 6.258 6.612 10.137 1.645 3.82 2.468 7.846 2.468 12.078 0 4.231-.823 8.286-2.468 12.165-1.587 3.82-3.791 7.2-6.612 10.138-2.762 2.88-6.024 5.172-9.785 6.876-3.761 1.704-7.758 2.556-11.989 2.556h-64.353c-4.232 0-8.228-.852-11.989-2.556-3.762-1.704-7.053-3.996-9.874-6.876-2.762-2.939-4.966-6.318-6.611-10.138a31.822 31.822 0 01-2.381-12.165c0-4.232.794-8.258 2.381-12.078 1.645-3.879 3.849-7.258 6.611-10.137 2.821-2.939 6.112-5.26 9.874-6.965C520.395.852 524.391 0 528.623 0h64.353zm-5.73 22.92h-52.893c-2.469 0-4.555.852-6.259 2.557-1.705 1.704-2.557 3.79-2.557 6.259 0 2.468.852 4.554 2.557 6.259 1.704 1.704 3.79 2.556 6.259 2.556h52.893c2.468 0 4.555-.852 6.259-2.556 1.704-1.705 2.556-3.791 2.556-6.26 0-2.468-.852-4.554-2.556-6.258-1.704-1.705-3.791-2.557-6.259-2.557zM629.228.881h117.246V62.59h-27.857V22.038h-61.532V62.59h-27.857V.88zM881.274 62.59h-31.383l-7.141-8.816h-54.303l-7.141 8.816h-31.383L799.907.88h31.383l49.984 61.709zm-52.805-26.447l-12.871-15.868-12.87 15.868h25.741zM884.824.881h92.563c3.879 0 7.346.706 10.402 2.116 3.056 1.41 5.642 3.291 7.758 5.642a24.137 24.137 0 014.853 7.846 25.497 25.497 0 011.67 9.08c0 3.056-.56 6.082-1.67 9.08a25.17 25.17 0 01-4.853 7.934c-2.116 2.292-4.702 4.143-7.758 5.553-3.056 1.41-6.523 2.116-10.402 2.116h-64.706V62.59h-27.857V.88zm27.857 21.157v7.053h57.654c2.585 0 3.878-1.175 3.878-3.526s-1.293-3.527-3.878-3.527h-57.654zM1006.47.881h27.85v33.852L1083.34.88h40.37l-44.69 30.855 44.69 30.854h-40.37l-24.51-16.926-24.51 16.926h-27.85V.88zm164.36 61.62h-27.85V22.657l-13.49 13.487-10.93-10.93 24.42-24.42h27.85v61.709zm6.18-24.595c0-3.526.74-7.023 2.21-10.49 1.47-3.526 3.49-6.465 6.08-8.816L1203.02.881h31.03l-11.46 11.46h46.1c4.41 0 8.23.794 11.46 2.38 3.24 1.587 5.88 3.615 7.94 6.083a24.255 24.255 0 014.67 8.287c1 2.997 1.5 5.936 1.5 8.815 0 2.88-.5 5.848-1.5 8.904-1 2.997-2.56 5.73-4.67 8.198-2.06 2.469-4.7 4.496-7.94 6.083-3.23 1.587-7.05 2.38-11.46 2.38h-65.23c-4.41 0-8.29-.793-11.64-2.38-3.29-1.587-6.05-3.614-8.28-6.083a26.08 26.08 0 01-4.94-8.198c-1.06-3.056-1.59-6.024-1.59-8.904zm85.51 3.527c2.59 0 3.88-1.176 3.88-3.527 0-2.35-1.29-3.526-3.88-3.526h-53.77c-2.59 0-3.88 1.176-3.88 3.526 0 2.351 1.29 3.527 3.88 3.527h53.77z" fill="#fff"/></svg>