<svg width="1237" height="61" fill="none" xmlns="http://www.w3.org/2000/svg"><path d="M42.633 21.063H.002V.843h112.054v20.22h-42.8v38.756H42.634V21.063zM118.81.843h109.527v15.165h-82.904v6.74h82.904v15.165h-82.904v6.74h82.904V59.82H118.81V.843zm152.462 0l21.737 15.586L314.746.843h37.576l-40.525 29.066 41.704 29.91h-37.576l-22.916-16.43-22.917 16.43h-37.576l41.705-29.91L233.696.843h37.576zm87.292 0h26.624V20.22h58.807V.843h26.624v58.976h-26.624V40.44h-58.807v19.378h-26.624V.843zM566.718 0c4.044 0 7.864.814 11.458 2.443 3.595 1.63 6.713 3.848 9.352 6.656 2.696 2.752 4.803 5.982 6.319 9.69 1.573 3.65 2.359 7.497 2.359 11.542 0 4.044-.786 7.92-2.359 11.626a31.06 31.06 0 01-6.319 9.69c-2.639 2.751-5.757 4.942-9.352 6.57-3.594 1.63-7.414 2.444-11.458 2.444h-61.503c-4.044 0-7.864-.814-11.459-2.443-3.594-1.629-6.74-3.82-9.436-6.572-2.64-2.808-4.746-6.038-6.319-9.689a30.426 30.426 0 01-2.274-11.626c0-4.044.758-7.892 2.274-11.543 1.573-3.707 3.679-6.937 6.319-9.689a30.279 30.279 0 019.436-6.656C497.351.814 501.171 0 505.215 0h61.503zm-5.476 21.905h-50.551c-2.359 0-4.353.815-5.982 2.444-1.629 1.629-2.443 3.622-2.443 5.982 0 2.359.814 4.353 2.443 5.981 1.629 1.63 3.623 2.444 5.982 2.444h50.551c2.359 0 4.353-.815 5.982-2.444 1.629-1.628 2.443-3.622 2.443-5.981 0-2.36-.814-4.353-2.443-5.982-1.629-1.63-3.623-2.444-5.982-2.444zM601.365.843H713.42v58.976h-26.624V21.063h-58.807v38.756h-26.624V.843zM842.25 59.819h-29.993l-6.825-8.425h-51.899l-6.824 8.425h-29.993L764.486.843h29.994l47.77 58.976zm-50.466-25.276l-12.301-15.165-12.301 15.165h24.602zm53.859-33.7h88.465c3.707 0 7.02.674 9.941 2.022 2.921 1.348 5.392 3.145 7.414 5.392a22.988 22.988 0 014.634 7.498 24.239 24.239 0 011.601 8.678c0 2.92-.534 5.813-1.601 8.678a23.97 23.97 0 01-4.634 7.583c-2.022 2.19-4.493 3.96-7.414 5.307-2.921 1.348-6.234 2.022-9.941 2.022h-61.841V59.82h-26.624V.843zm26.624 20.22v6.74h55.1c2.472 0 3.707-1.123 3.707-3.37s-1.235-3.37-3.707-3.37h-55.1zM961.901.843h26.623v32.352L1035.37.843h38.59l-42.72 29.488 42.72 29.488h-38.59l-23.42-16.177-23.426 16.177h-26.623V.843zm157.089 58.891h-26.63V21.653l-12.89 12.89-10.44-10.447L1092.36.758h26.63v58.976zm5.9-23.506c0-3.37.71-6.712 2.11-10.026 1.4-3.37 3.34-6.178 5.81-8.425L1149.75.843h29.65l-10.95 10.952h44.06c4.22 0 7.87.758 10.96 2.275 3.09 1.517 5.61 3.454 7.58 5.813a23.212 23.212 0 014.47 7.92c.95 2.865 1.43 5.673 1.43 8.425 0 2.752-.48 5.589-1.43 8.51-.96 2.864-2.45 5.476-4.47 7.835-1.97 2.359-4.49 4.297-7.58 5.813-3.09 1.517-6.74 2.275-10.96 2.275h-62.34c-4.21 0-7.92-.758-11.12-2.275-3.15-1.516-5.79-3.454-7.92-5.813-2.08-2.36-3.65-4.97-4.72-7.835-1.01-2.921-1.52-5.758-1.52-8.51zm81.73 3.37c2.47 0 3.7-1.123 3.7-3.37s-1.23-3.37-3.7-3.37h-51.4c-2.47 0-3.7 1.123-3.7 3.37s1.23 3.37 3.7 3.37h51.4z" fill="#fff"/></svg>