<svg width="48" height="48" fill="none" xmlns="http://www.w3.org/2000/svg"><path d="M43.424 16.9C32.896 6.374 15.106 6.374 4.578 16.9c-3.75 3.75-4.11 9.279-.88 13.445a3 3 0 003.447.952l9.187-3.257.055-.02a3 3 0 001.828-2.2l1.106-5.535a14.347 14.347 0 019.315-.02l1.165 5.578a3 3 0 001.822 2.173l.054.02 9.188 3.261a3 3 0 003.446-.948c3.223-4.17 2.861-9.7-.887-13.45zM41.94 28.5l-.056-.023-9.154-3.25-1.164-5.575a3 3 0 00-1.939-2.215 17.355 17.355 0 00-11.314.025 3.002 3.002 0 00-1.935 2.25l-1.106 5.533-9.152 3.229c-.018 0-.032.024-.05.031-2.312-2.983-2.063-6.793.63-9.483 4.687-4.688 10.996-7.037 17.302-7.037 6.306 0 12.613 2.345 17.303 7.037 2.686 2.69 2.947 6.5.635 9.478zm.06 9a1.5 1.5 0 01-1.5 1.5H7.501a1.5 1.5 0 010-3h33a1.5 1.5 0 011.5 1.5H42z" fill="#fff"/></svg>