<svg width="45" height="30" fill="none" xmlns="http://www.w3.org/2000/svg"><path d="M41.924 7.893C31.396-2.63 13.606-2.63 3.078 7.893c-3.75 3.75-4.11 9.28-.88 13.446a3 3 0 003.447.952l9.187-3.256.055-.021a3 3 0 001.828-2.2l1.106-5.534a14.348 14.348 0 019.315-.021l1.165 5.578a3 3 0 001.822 2.173l.054.02 9.188 3.261a3 3 0 003.446-.948c3.223-4.17 2.861-9.7-.887-13.45zm-1.485 11.6l-.056-.022-9.154-3.249-1.164-5.576a3 3 0 00-1.939-2.215 17.355 17.355 0 00-11.314.025 3 3 0 00-1.935 2.25l-1.106 5.533-9.152 3.229c-.018 0-.032.024-.05.032-2.312-2.984-2.063-6.794.63-9.484C9.886 5.328 16.195 2.979 22.5 2.979c6.306 0 12.613 2.346 17.303 7.037 2.686 2.69 2.947 6.5.635 9.478zm.06 9a1.5 1.5 0 01-1.5 1.5H6.001a1.5 1.5 0 110-3h33a1.5 1.5 0 011.5 1.5H40.5z" fill="#EF9033"/></svg>