<svg width="360" height="800" fill="none" xmlns="http://www.w3.org/2000/svg"><g opacity=".24" stroke-opacity=".9"><path opacity=".9" d="M0 400h359.999M0 200h359.999M0 50.002h359.999M0 750.827h359.999M0 600h359.999M0 800L180 0M0 800L90 0M0 400L180 0M0 400l180 400m0-800l180 400M180 800l180-400M0 0l180 800M0 0l90 800M0 0l359.999 800M0 800L359.999 0M360 800L180 0m180 800L270 0m90 0L180 800M360 0l-90 800M180 0v800M270 0v800M315 0v800M45 0v800M337.5 0v800M22.5 0v800M348.75 0v800M11.25 0v800M90 0v800" stroke="#31FFFF"/><path opacity=".9" d="M0 266.667h359.999M0 533.333h359.999M240 0v800M120 0v800" stroke="#3146FF"/></g></svg>