<svg width="1079" height="355" fill="none" xmlns="http://www.w3.org/2000/svg"><path d="M1079 1079H0V0h1079v1079zM7.593 1071.41H1071.41V7.593H7.593V1071.41z" fill="#55585B"/><path d="M913.177 913.174H165.828v-747.35h747.349v747.35zm-739.756-7.593h732.164V173.416H173.421v732.165z" fill="#55585B"/><path d="M825.076 825.099H253.953V253.976h571.123v571.123zm-563.53-7.592h555.937V261.568H261.546v555.939z" fill="#55585B"/><path d="M773.24 773.279H305.719V305.758H773.24v467.521zm-459.929-7.592h452.336V313.351H313.311v452.336z" fill="#55585B"/><path d="M740.061 740.061H338.938V338.938h401.123v401.123zm-393.531-7.593h385.938V346.53H346.53v385.938z" fill="#55585B"/><path d="M1072.65 1.528L702.734 371.442l5.369 5.369L1078.02 6.896l-5.37-5.368zM6.494 1.145L1.125 6.513l369.914 369.915 5.369-5.369L6.494 1.145zm847.808.452L636.633 371.569l6.544 3.85L860.846 5.447l-6.544-3.85zM642.621 3.24l-73.309 369.897 7.448 1.476L650.069 4.715l-7.448-1.476zm-418.132-.662l-6.544 3.851 217.734 369.933 6.543-3.851L224.489 2.578zm211.967.918l-7.448 1.475 73.244 369.91 7.448-1.475-73.244-369.91zm636.854 215.336L703.336 436.5l3.85 6.545 369.974-217.669-3.85-6.544zM5.383 217.353l-3.852 6.544 369.934 217.734 3.851-6.544L5.383 217.353z" fill="#55585B"/></svg>