<svg width="334" height="260" fill="none" xmlns="http://www.w3.org/2000/svg"><path d="M481 628h-628V0h628v628zm-623.581-4.419h619.162V4.419h-619.162v619.162z" fill="#55585B"/><path d="M384.488 531.486H-50.484V96.513h434.972v434.973zm-430.553-4.419h426.134V100.932H-46.065v426.135z" fill="#55585B"/><path d="M333.202 480.225H.797V147.819h332.405v332.406zm-327.986-4.42h323.567V152.238H5.216v323.567z" fill="#55585B"/><path d="M303.044 450.065H30.938V177.958h272.106v272.107zm-267.687-4.419h263.268V182.377H35.357v263.269z" fill="#55585B"/><path d="M283.727 430.73H50.266V197.269h233.461V430.73zm-229.042-4.419h224.623V201.688H54.685v224.623z" fill="#55585B"/><path d="M263.295 218.001H70.312v192.983h192.983V218.001zM477.313.89L262.016 216.186l3.124 3.125L480.438 4.014 477.313.89zM-143.219.667l-3.125 3.125L68.954 219.089l3.125-3.125L-143.22.667z" fill="#55585B"/><path d="M350.235.93L223.547 216.26l3.809 2.241L354.044 3.17 350.235.93zm-123.224.956l-42.667 215.288 4.335.859L231.346 2.745l-4.335-.86zM-16.332 1.5l-3.809 2.242L106.585 219.05l3.808-2.242L-16.332 1.5zm123.354.535l-4.334.859 42.629 215.295 4.335-.859-42.63-215.295zm370.668 125.33L262.359 254.053l2.241 3.809 215.331-126.688-2.241-3.809zm.567 122.641l-215.288 42.667.859 4.335 215.288-42.668-.859-4.334zm-622.109-123.502l-2.242 3.808 215.31 126.726 2.24-3.808-215.308-126.726zm-.712 123.114l-.858 4.335 215.296 42.63.858-4.335-215.296-42.63z" fill="#55585B"/></svg>