<svg width="240" height="221" fill="none" xmlns="http://www.w3.org/2000/svg"><path d="M240 140.591c0-6.275-5.986-11.256-14.13-15.188 8.144-3.904 14.13-8.913 14.13-15.187 0-11.337-19.685-18.58-36.162-22.62-14.642-3.608-32.44-6.139-51.829-7.485l-4.935-10.395 31.524-11.202-31.524-11.202 14.346-30.159-30.202 14.326L120 0l-11.218 31.479L78.58 17.153l14.346 30.16-31.524 11.201 31.524 11.202-4.935 10.395c-19.389 1.32-37.187 3.877-51.83 7.486C19.659 91.663 0 98.879 0 110.216c0 6.274 5.987 11.256 14.13 15.187C5.987 129.308 0 134.316 0 140.591c0 6.597 6.66 11.821 15.506 15.806C6.66 160.41 0 165.607 0 172.204c0 6.597 6.66 11.821 15.506 15.807C6.66 192.023 0 197.22 0 203.818c0 11.336 19.685 18.58 36.162 22.619C58.57 231.957 88.342 235 120 235c31.658 0 61.402-3.043 83.838-8.563C220.342 222.371 240 215.154 240 203.818c0-6.598-6.661-11.822-15.506-15.807 8.845-4.012 15.506-9.21 15.506-15.807 0-6.597-6.661-11.821-15.506-15.807 8.845-4.012 15.506-9.209 15.506-15.806zm-122.589 58.433c-30.337-.161-58.732-3.123-80.197-8.428-3.29-.808-6.364-1.67-9.223-2.558a157.013 157.013 0 019.223-2.558c21.087-5.197 48.835-8.16 78.525-8.402l1.672 21.973v-.027zm-2.4-31.667c-29.42-.296-56.899-3.258-77.797-8.401a157.88 157.88 0 01-9.223-2.559c2.858-.888 5.933-1.75 9.223-2.558 20.52-5.062 47.352-7.997 76.125-8.374l1.672 21.919v-.027zm-2.319-30.375c-28.557-.43-55.119-3.366-75.478-8.374-4.072-.997-7.82-2.074-11.191-3.205a143.08 143.08 0 0111.19-3.204c19.956-4.901 45.843-7.836 73.726-8.348l1.753 23.131zM4.369 110.216c0-6.436 12.27-13.33 32.845-18.392 13.806-3.393 30.445-5.843 48.62-7.19L78.58 99.877l30.202-14.326 1.834 23.939c-28.1.539-54.256 3.501-74.454 8.455-5.447 1.347-11.245 3.016-16.557 5.09-9.762-4.013-15.236-8.51-15.236-12.818zm0 30.375c0-4.309 5.474-8.806 15.236-12.818 5.312 2.073 11.11 3.743 16.557 5.089 19.173 4.713 43.712 7.621 70.193 8.375-26.48.754-51.047 3.635-70.193 8.375-4.881 1.211-10.059 2.692-14.912 4.47-10.787-4.174-16.881-8.94-16.881-13.464v-.027zm0 31.64c0-4.551 6.094-9.29 16.88-13.464 4.854 1.777 10.032 3.258 14.913 4.47 21.33 5.251 49.294 8.24 79.173 8.536l.081.943c-29.933.269-57.924 3.285-79.254 8.536-4.881 1.212-10.059 2.693-14.912 4.47-10.787-4.174-16.881-8.94-16.881-13.464v-.027zm32.845 50.005c-20.576-5.062-32.845-11.929-32.845-18.392 0-4.55 6.094-9.29 16.88-13.464 4.854 1.778 10.032 3.259 14.913 4.47 21.896 5.386 50.777 8.402 81.6 8.564l2.076 27.251c-31.227 0-60.566-3.016-82.624-8.429zM131.19 85.55l30.202 14.326-7.254-15.242c18.176 1.347 34.841 3.797 48.621 7.19 20.575 5.063 32.845 11.929 32.845 18.392 0 4.308-5.475 8.805-15.236 12.818-5.313-2.074-11.111-3.743-16.558-5.09-20.197-4.981-46.328-7.916-74.454-8.455l1.834-23.939zm-2.157 28.301c27.883.512 53.797 3.447 73.726 8.348 4.071.996 7.82 2.073 11.191 3.204a143.64 143.64 0 01-11.191 3.205c-20.36 5.008-46.949 7.944-75.479 8.374l1.753-23.131zm-2.4 31.614c28.8.404 55.631 3.339 76.126 8.374 3.289.808 6.364 1.67 9.222 2.558a157.839 157.839 0 01-9.222 2.559c-20.899 5.143-48.378 8.105-77.798 8.401l1.672-21.919v.027zm-2.4 31.586c29.717.269 57.465 3.231 78.553 8.402a157.08 157.08 0 019.222 2.558c-2.858.888-5.933 1.75-9.222 2.558-21.493 5.278-49.888 8.267-80.198 8.428l1.672-21.973-.027.027zm111.371 26.793c0 6.436-12.27 13.33-32.845 18.392-22.059 5.44-51.371 8.429-82.625 8.429l2.076-27.251c30.796-.135 59.704-3.151 81.6-8.564 4.881-1.211 10.059-2.692 14.913-4.47 10.786 4.174 16.881 8.94 16.881 13.464zm0-31.613c0 4.551-6.095 9.29-16.881 13.464-4.854-1.777-10.032-3.258-14.913-4.47-21.33-5.251-49.321-8.267-79.254-8.536l.081-.943c29.906-.269 57.87-3.285 79.173-8.536 4.881-1.212 10.059-2.693 14.913-4.47 10.786 4.174 16.881 8.94 16.881 13.464v.027zm-16.881-18.176c-4.854-1.778-10.032-3.259-14.913-4.47-19.173-4.713-43.712-7.621-70.193-8.375 26.481-.754 51.047-3.635 70.193-8.375 5.447-1.346 11.245-3.015 16.558-5.089 9.761 4.012 15.236 8.509 15.236 12.818 0 4.551-6.095 9.29-16.881 13.464v.027z" fill="#EF9033"/></svg>